<svg xmlns="http://www.w3.org/2000/svg" width="59" height="36" fill="none"><path fill="#FEFEFE" fill-rule="evenodd" d="M0 0h2.822v24.154H0V0Zm18.847 21.7c-.574 1.18-2.248 2.878-5.453 2.878-3.49 0-6.265-2.028-6.265-5.566 0-4.152 3.719-4.895 7.126-5.331.562-.072 1.069-.127 1.523-.178 2.252-.248 3.212-.355 3.212-1.473v-.095c0-2.323-1.28-3.68-3.874-3.68-2.69 0-4.16 1.416-4.782 2.737l-2.679-.944c1.435-3.302 4.592-4.245 7.365-4.245 2.344 0 6.792.66 6.792 6.415v11.936H18.99V21.7h-.143ZM9.95 19.153c0 1.934 1.626 2.925 3.874 2.925 3.348 0 5.165-2.217 5.165-4.482V15.05c-.443.524-3.227.846-4.584 1.003l-.294.035c-2.2.283-4.161.943-4.161 3.066Zm16.485 5h14.396V21.56H30.358v-.189l10.14-13.114V6.038H26.77v2.595h10.091v.189L26.436 22.03v2.123ZM56.035 21.7c-.574 1.18-2.248 2.878-5.452 2.878-3.492 0-6.266-2.028-6.266-5.566 0-4.152 3.719-4.895 7.126-5.331.562-.072 1.069-.127 1.523-.178 2.252-.248 3.212-.355 3.212-1.473v-.095c0-2.323-1.28-3.68-3.874-3.68-2.69 0-4.16 1.416-4.782 2.737l-2.679-.944c1.435-3.302 4.592-4.245 7.366-4.245 2.343 0 6.791.66 6.791 6.415v11.936h-2.822V21.7h-.143Zm-8.896-2.547c0 1.934 1.626 2.925 3.874 2.925 3.348 0 5.165-2.217 5.165-4.482V15.05c-.443.524-3.227.846-4.584 1.003l-.294.035c-2.2.283-4.161.943-4.161 3.066Zm-27.78 9.837c5.914 5.32 21.954 12.638 39.202.081l-1.472-2.02c-16.026 11.667-30.751 4.854-36.059.08l-1.672 1.86Z" clip-rule="evenodd"/></svg>